<?xml version="1.0" standalone="no"?>
<!DOCTYPE svg PUBLIC "-//W3C//DTD SVG 20010904//EN"
 "http://www.w3.org/TR/2001/REC-SVG-20010904/DTD/svg10.dtd">
<svg version="1.0" xmlns="http://www.w3.org/2000/svg"
 width="640.000000pt" height="640.000000pt" viewBox="0 0 640.000000 640.000000"
 preserveAspectRatio="xMidYMid meet">
<metadata>
Created by potrace 1.14, written by Peter Selinger 2001-2017
</metadata>
<g transform="translate(0.000000,640.000000) scale(0.100000,-0.100000)"
fill="#000000" stroke="none">
<path d="M4730 6219 l-35 -11 38 -20 c26 -13 37 -24 33 -34 -3 -9 -17 -77 -31
-152 -29 -162 -72 -323 -151 -562 -62 -189 -71 -254 -39 -290 13 -15 22 -17
36 -10 31 17 100 11 219 -19 127 -32 137 -31 175 26 11 16 36 95 55 176 31
129 37 147 55 147 27 0 93 -19 99 -28 7 -12 -22 -149 -59 -278 -32 -111 -34
-124 -23 -160 12 -36 18 -41 78 -60 36 -12 87 -31 113 -43 27 -11 59 -21 72
-21 27 0 60 40 71 86 12 50 82 211 175 407 94 196 137 313 163 441 21 99 21
208 0 252 -14 30 -25 36 -88 55 -94 28 -180 36 -192 18 -5 -8 -39 -90 -75
-184 -43 -111 -72 -171 -82 -173 -17 -3 -143 32 -166 47 -10 6 -11 13 -2 29
22 40 61 208 61 259 0 72 -18 83 -158 94 -194 16 -306 19 -342 8z"/>
<path d="M6018 6137 c-75 -115 -64 -178 39 -227 107 -50 136 -41 171 53 36 95
33 168 -8 209 -28 27 -36 30 -75 25 -25 -2 -45 -1 -45 4 0 5 -8 9 -17 9 -11 0
-37 -29 -65 -73z"/>
<path d="M2437 5875 c-170 -28 -305 -80 -494 -191 -291 -170 -467 -325 -663
-584 -151 -200 -250 -354 -264 -410 -11 -43 -14 -46 -82 -75 -199 -85 -292
-185 -485 -520 -118 -206 -173 -354 -221 -595 -21 -105 -23 -139 -22 -405 1
-159 7 -384 13 -499 33 -609 32 -1215 -2 -1411 -19 -106 -131 -519 -158 -581
-44 -102 -59 -206 -59 -411 l0 -193 1055 0 c770 0 1055 3 1055 11 0 7 -9 9
-21 6 -16 -4 -19 -2 -14 11 4 9 14 37 23 62 8 25 16 47 18 49 2 2 27 -17 56
-43 29 -26 78 -56 108 -69 l55 -22 2033 -2 2032 -3 0 114 0 115 -27 13 c-15 7
-38 31 -50 53 -34 60 -31 138 12 274 59 188 58 320 -4 442 -15 30 -67 122
-115 204 -47 83 -91 168 -97 190 -15 55 -7 112 35 235 78 226 110 448 86 588
-10 59 -23 91 -76 180 -36 59 -85 127 -109 152 -51 51 -53 60 -26 84 11 10 36
57 56 104 19 47 56 113 80 146 25 33 45 66 45 73 0 39 -94 88 -154 81 l-33 -4
-7 85 c-3 46 -11 90 -17 98 -16 19 -64 16 -109 -7 -44 -22 -54 -25 -45 -10 3
6 -5 10 -19 10 -14 0 -28 -4 -31 -10 -3 -5 -20 7 -38 27 -31 35 -80 63 -112
63 -8 0 -24 -9 -35 -20 l-20 -20 -11 27 c-6 16 -17 44 -24 63 -17 48 -133 318
-151 352 -8 16 -43 64 -79 108 l-64 79 107 -5 c59 -3 127 -10 152 -15 31 -7
46 -7 48 0 2 6 18 11 35 11 50 0 107 12 107 21 0 5 -11 9 -25 9 -78 0 -208 45
-392 136 -225 111 -258 136 -419 324 -115 134 -171 213 -318 446 -245 390
-405 549 -761 753 -384 221 -684 309 -1080 317 -133 2 -216 -1 -278 -11z
m-1214 -1962 l30 -32 -42 -47 c-22 -26 -54 -69 -70 -97 -15 -27 -31 -45 -35
-39 -10 16 -12 302 -3 336 l8 28 41 -58 c23 -33 54 -73 71 -91z m260 -189
c214 -111 394 -159 602 -158 115 0 139 3 208 27 l78 27 76 -20 c187 -49 408
-47 635 5 345 80 497 118 549 140 32 14 64 25 71 24 17 0 144 -164 207 -266
242 -390 294 -741 175 -1163 -29 -103 -129 -307 -220 -450 -124 -193 -283
-471 -300 -523 -21 -62 -21 -190 -1 -284 15 -70 13 -75 -48 -106 -17 -8 -39
-25 -50 -37 -30 -33 -105 -68 -162 -76 -102 -13 -222 46 -261 128 -44 92 -46
89 72 131 113 41 137 58 119 85 -12 19 -46 18 -78 -2 -28 -18 -214 -72 -331
-96 -251 -52 -605 -45 -824 17 -169 47 -310 136 -499 313 -76 71 -143 130
-149 130 -13 0 -109 106 -127 140 -43 83 -146 718 -107 661 7 -10 12 6 17 55
8 86 11 94 31 94 8 0 47 14 86 31 38 17 72 29 74 27 2 -2 -32 -27 -76 -56 -77
-49 -97 -72 -65 -72 9 0 30 7 48 16 28 14 25 9 -23 -40 -44 -45 -52 -59 -41
-66 16 -10 28 -5 108 47 108 69 262 118 418 134 55 5 112 14 127 20 32 13 47
47 27 60 -10 6 -5 12 19 21 17 7 32 15 32 18 0 4 -17 14 -37 24 -37 18 -37 19
-15 29 12 5 22 15 22 21 0 20 -30 56 -60 71 -37 19 -191 20 -280 1 -83 -18
-213 -68 -268 -103 -63 -41 -70 -79 -9 -54 62 26 201 60 261 65 57 5 58 5 16
-4 -165 -34 -248 -65 -346 -130 l-31 -20 -6 112 c-5 90 -3 123 11 172 25 88
22 378 -6 536 l-20 115 53 70 c65 88 174 215 184 215 4 0 56 -25 114 -56z
m4221 -520 c19 -20 43 -56 52 -80 19 -51 31 -54 65 -18 28 31 84 68 118 79
l24 7 -6 -115 c-4 -64 -3 -118 1 -121 5 -3 33 4 62 15 53 20 91 19 117 -3 10
-8 5 -19 -21 -49 -18 -22 -53 -76 -78 -122 -25 -45 -85 -145 -134 -222 -86
-136 -138 -242 -184 -375 -36 -104 -89 -320 -79 -320 5 0 9 4 9 8 0 5 7 17 15
28 11 13 9 2 -6 -36 -34 -91 -90 -205 -191 -390 -52 -96 -123 -233 -157 -304
-34 -71 -82 -167 -107 -212 l-45 -83 -73 52 c-94 66 -275 267 -354 391 -40 64
-119 229 -140 292 -38 113 -37 228 1 209 7 -4 4 0 -5 8 -10 8 -18 22 -18 32 0
10 58 77 128 149 305 312 571 665 607 805 21 78 45 267 39 298 -9 46 11 55 76
33 51 -17 70 -32 95 -75 9 -16 12 -15 35 3 14 11 41 49 60 86 19 36 40 66 47
66 7 0 28 -16 47 -36z m-1007 -266 c-3 -8 -6 -5 -6 6 -1 11 2 17 5 13 3 -3 4
-12 1 -19z m434 -301 c-10 -9 -11 -8 -5 6 3 10 9 15 12 12 3 -3 0 -11 -7 -18z
m-11 -21 c0 -3 -4 -8 -10 -11 -5 -3 -10 -1 -10 4 0 6 5 11 10 11 6 0 10 -2 10
-4z m-4783 -93 c-3 -10 -5 -4 -5 12 0 17 2 24 5 18 2 -7 2 -21 0 -30z m4213
-626 c0 -2 -12 -14 -26 -28 l-27 -24 18 28 c14 22 35 36 35 24z m-4193 -364
c-3 -10 -5 -2 -5 17 0 19 2 27 5 18 2 -10 2 -26 0 -35z m4954 -532 c-6 -11
-11 -42 -11 -70 0 -55 -7 -62 -33 -33 -15 17 -14 22 16 80 17 34 33 57 35 52
2 -5 -1 -18 -7 -29z"/>
<path d="M3556 3415 c-138 -20 -264 -57 -383 -115 -94 -46 -105 -55 -143 -110
l-41 -60 26 0 c30 0 31 -11 6 -65 -22 -50 -34 -95 -24 -95 5 0 40 17 78 37
223 116 357 164 565 202 80 15 145 31 145 36 0 14 -74 27 -122 22 -67 -7 -50
9 30 28 138 33 117 63 -37 52 l-81 -5 107 27 c108 27 127 35 114 48 -13 13
-140 12 -240 -2z m11 -81 c-3 -3 -12 -4 -19 -1 -8 3 -5 6 6 6 11 1 17 -2 13
-5z m-40 -10 c-3 -3 -12 -4 -19 -1 -8 3 -5 6 6 6 11 1 17 -2 13 -5z m-40 -10
c-3 -3 -12 -4 -19 -1 -8 3 -5 6 6 6 11 1 17 -2 13 -5z"/>
<path d="M2681 2618 c-41 -27 -94 -67 -118 -88 -72 -63 -161 -97 -297 -115
-47 -6 -48 -7 -42 -35 9 -48 76 -220 116 -301 108 -218 299 -423 448 -479 100
-38 215 -17 259 46 37 54 46 91 40 167 -8 119 -118 418 -246 667 -40 80 -76
155 -80 166 -6 20 -10 19 -80 -28z m73 -15 c39 -135 63 -206 93 -271 55 -122
128 -309 158 -405 54 -177 22 -282 -90 -294 -96 -11 -186 38 -323 177 -118
120 -233 308 -325 531 l-15 37 80 7 c79 6 154 27 219 60 48 25 131 97 160 139
27 40 35 44 43 19z"/>
<path d="M5872 5706 c-23 -35 -48 -90 -58 -122 -9 -33 -20 -63 -24 -69 -4 -5
-62 -114 -129 -241 -140 -268 -146 -291 -88 -349 23 -23 54 -39 103 -53 122
-36 120 -36 158 0 27 26 43 57 71 143 21 61 69 178 107 260 111 237 168 369
168 386 0 9 -6 21 -13 27 -19 16 -206 82 -232 82 -18 0 -33 -16 -63 -64z"/>
</g>
</svg>
